<svg version="1.1" xmlns="http://www.w3.org/2000/svg" xmlns:xlink="http://www.w3.org/1999/xlink" x="0px" y="0px"
	 viewBox="0 0 420 400" style="" xml:space="preserve">
<style lang="text/css">
	.st0{display:none;}
	.st1{display:inline;}
	.st2{fill:#163683;}
	.st3{fill:#122F77;}
	.st4{fill:#255584;}
	.st5{fill:#1D4973;}
	.st6{fill:#008071;}
	.st7{fill:#007360;}
	.st8{fill:#7FB539;}
	.st9{fill:#73A434;}
	.st10{fill:#96BC33;}
	.st11{fill:#404041;}
	.st12{fill:#323031;}
	.st13{fill:#6D6E70;}
	.st14{fill:#58595B;}
	.st15{fill:#929497;}
	.st16{fill:#808184;}
	.st17{fill:#B1B3B5;}
	.st18{fill:#9C9EA1;}
	.st19{fill:#D0D2D3;}
	.st20{fill:#FFFFFF;}
</style>
<g id="Layer_2_00000154428240970496709840000002986080513450339481_" class="st0">
	<g id="Layer_1-2" class="st1">
		<g>
			<g>
				<circle class="st2" cx="199.6" cy="200.1" r="199.3"/>
				<path class="st3" d="M370,285.3c0,0-2.6,0.7-2.8,0c-2.8-8.5-8.5-11.4-17-11.4c-6.4,0-14.2,0-25.6,8.5
					c-8.5,6.3-21.6,23.9-28.4,31.3c-8.2,8.9-24,29.7-31.3,36.9c-8.5,8.5-49.5,48.7-68.2,48.7c-6.1,0-18-0.8-28.4-2.4
					c-9-1.4-17.1-3.6-17.1-3.6c-1.1-0.6-25.6-5.7-31.3-11.4c-7.1-7.1,45,7.3,39.8,5.7c-1.2-0.4,28.4-5.7,28.4-5.7
					c0.2,0,7.9-1.2,19.9-8.5c14.1-8.6,20.5-12.3,34.6-24.1l4.7-3.9c10.6-8.8,16.4-15.2,22.6-22c3.2-3.5,6.5-7.2,10.6-11.2
					c5.7-5.7,9.9-10.6,13.9-15.4c3.8-4.5,7.3-8.6,11.7-13c7.8-7.8,13.8-11.6,20.1-15.7c1.5-1,3.1-2,4.8-3.1
					c18.2-12.1,32.5,2.1,37.8,7.5l1.3,7.2"/>
				<path class="st4" d="M11.9,137.8c1.2-7.1,5.4-18.2,3.1-13.1c0,0-4.4,13.1-7.3,21.8c-3.2,9.7-6.6,32.8-7.3,39.2
					c-1.3,13.1,0.8,32.2,1.5,37.8c1.5,11.6,2.4,17.8,5.6,29.1c4.6,16.2,13,35.9,22,50.9c9.7,16.1,24.7,33.4,34.9,43.6
					c10.2,10.2,20.1,17,27.6,21.8c10.3,6.6,20.7,10.4,28.1,13.2c12.9,4.8,30.6,8.1,48.4,6.5s28.6-7,43.2-15
					c14.6-8.1,34.2-23.6,47.1-36.5c12.9-12.9,25.2-23.2,35.5-35.5c8.1-9.7,19.3-19.3,24.2-22.6c9.7-6.5,9.9-6.9,21-9.7
					c6.5-1.6,14.5,0,19.3,3.2c6.7,4.5,8.1,9.7,8.1,16.1s0,8.5-3.2,19.3l-3.2,10.9c-1,0.5,1.5-3.3,5.6-8.5l5.6-9.5
					c2.7-4.5,6.2-10.7,8.2-14.8c3-6.2,8.4-19.1,11.6-32c3.1-12.6,2-24.5-0.9-36.1c-3.2-12.9-8.8-21.5-15.3-26.4
					c-2.8-2.1-11.1-7.4-16.7-8.5c-7.3-1.4-19.4-1.1-24-0.2c-10,2-17.5,4.9-32,14.5S281.3,216,270,225.7s-24.2,22.6-40.3,37.1
					c-16.1,14.5-40.3,29-51.6,33.9c-14,6-29,11.3-46.8,12.9c-11.3,1-23.2,1.6-34.5,0c-16.3-2.3-29.2-7.7-38.5-13.3
					c-8.1-4.8-20.3-16-29.1-27.6c-5-6.7-14.5-26.2-17.4-37.8c-1.6-6.6-6.5-27.2-6.5-40.5c-0.1-12.5,2.7-37,5.1-46.7L11.9,137.8
					L11.9,137.8z"/>
				<path class="st5" d="M105.7,342.1c-22.7-2.8-35.3-2-51.2-11.4c-17.5-10.4-30.2-36.1-34.1-42.6C12,274,0.6,231.3,0.6,208.6
					c0-6.3-0.7-24.3,2.8-42.6c3.2-16.4,11.4-33.1,11.4-39.8L4.7,165.9c0.4,39.9,4.4,51.4,5.5,57.7c3.1,16.8,18.9,43.4,24.7,52.2
					c1.9,2.9,22,20.2,33.4,24.8c19.7,7.9,56.6,12.9,76.5,7.9c26.9-6.7,55.5-21.5,76.6-39.6c26.5-22.7,44.8-39.2,56-50.4
					c14.2-14.2,32.4-29.5,43.1-36.4c14.8-9.4,31.4-10.6,46.8-3.4c16.5,7.7,26.6,23.1,30.2,34l-7.8,7.3c-1.5-4.6-2.2-15.3-22.7-25.6
					c-17-8.5-31.3-2.8-42.6,2.8c-16.3,8.1-28.1,19.6-42.6,34.1c-11.9,11.9-22.7,28.4-42.6,48.3c-17.1,17-52.4,43.8-79.6,54
					C137,342.1,115.5,342.1,105.7,342.1L105.7,342.1z"/>
				<path class="st6" d="M402,79.9c7.3,8.7,8.7,14.5,10.2,23.2s-2.9,23.2-5.8,29.1c-2.9,5.8-7.3,13.1-8.7,16
					c-2.3,4.7-2.9,7.3-2.9,10.2c0,0,1.5,7.3,2.7,17.9c0.9,7.8,1.6,23.3,1.1,34.1s-2.9,26.2-4.4,33.4c-2,9.8-7.7,26.7-2.4,4.6
					c1-4.2,1.2-10.1,0-18.9c-1.5-10.2-3.5-17.1-7.3-24.7c-2.9-5.8-4.2-8.9-11.6-14.5c-5.8-4.4-10.2-5.8-17.4-7.3
					c-4.5-0.9-13.1-0.8-18.9,0c-2.6,0.4-8.9,2.5-10.2,2.9c-8.7,2.9-19.3,10-26.2,14.5c-4.4,2.9-24.7,20.3-24.7,20.3
					c-12.9,11.3-24.9,24.1-37.8,35.4c-12.9,11.3-29,24.2-43.5,32.2c-14.5,8.1-30.6,14.8-45.1,18.1s-21,4.5-37.1,4.5
					c-8.3,0-17.5-1.1-26.1-3.3c-5.8-1.5-10.2-2.9-17.4-5.8c-4.3-1.7-11.1-6.4-18.9-11.6c-9.7-6.5-18.9-17.4-26.2-30.5
					c-8.8-15.9-15.1-37-17.4-52.3c-2.9-18.9-1.5-34.5,1.4-52.3c1.4-8.7,3.1-18.6,8.7-33.4c4.4-11.6,7.3-16,11.6-23.2
					c3.6-6,9.9-16.2,13.1-20.3c4.4-5.8,8.7-11.6,14.5-17.4c10.4-10.4,29.1-24.7,33.4-27.6c5.4-3.6,16-10.2,32-17.4
					c10.2-4.6,20.1-7.2,31.2-9.9c6.4-1.5,20.4-3.8,24.7-4.4C188.4,0,190.1,0,204.4,0c1.4,0,13.4,0.7,18.9,1.5
					c7.3,1,19.6,2.7,28.3,5.6c4.4,1.5,17.5,4.9,32,11.6c2.6,1.2,10.8,5.3,16.7,8.9l11,6.8c4,3.3,11.1,9,15.6,12.7s11.3,8.7,15,11.2
					l2,1.2c1.6,1,2.3,2,3.8,2.7c0.5,0.2,0,0.1,0.5,0.2c0.6,0.2,1.7,1.2,2.4,1.2c1.2,0.1,1.7-0.1,2.9,0c1.7,0.2,11.9,1.5,13.6,1.7
					c1.6,0.2,6.6,1,8.2,1.2c1.5,0.2,2-0.1,3.4,0.2c1.4,0.3,4.4,1,5.8,1.4c1.5,0.5,2.9,0.8,4.4,1.4c0,0,0.9,0.1,2.9,1.4
					C396.2,74.1,399.7,77.1,402,79.9L402,79.9z"/>
				<path class="st7" d="M410.5,95.3c1,3,2,9.4,1.9,12.6c-0.1,4.7,0.1,1.2,0.1,1.2s-0.6-3-2.8-8.5c-2.9-7.2-8.5-17.1-19.9-22.7
					c-13.7-6.8-34.1-5.7-48.3,0C331.3,82,308,94.2,299,100.6c-18,12.9-17,14.2-36.9,31.3c-0.4,0.3-12,9-31.3,25.6
					c-15.2,13.1-29.1,26.5-39.8,34.1c-7.9,5.6-30.9,24.6-46.7,32c-22,10.4-34.9,11.6-34.9,11.6c-7.9,0.8-20.9,0.2-28.7-1.3
					c0,0-23.5-4.5-35.1-11.8c-15-9.4-23.6-24-27.6-33.4c-4.4-10.2-7.3-21.8-7.3-30.5v-17.7c0.8-3.9,1.4-7.7,1.4-8.5l4.4-10.2
					c0,0,4.9-12.3,8.3-17.8S44,73.9,44,73.9l2.9-2.9c-1.6,2.4-6,10.1-9.7,17.2c0,0-6.3,11.9-6.3,33.7c0,36.4,11.2,51.3,26.2,62.5
					c17.4,13.1,39.2,17.4,72.6,10.2c28.2-6.1,85.9-50.7,85.9-50.7c6.3-4.9,16.8-12.8,23.2-17.5l31.8-23.5
					c6.4-4.7,17.5-11.6,24.6-15.3l16.3-8.4c7.1-3.7,15.2-7.7,18-8.9c2.8-1.2,8.8-1.4,11.6-2.2c2.8-0.8,5.1-1.4,5.1-1.4h5.8
					c0.8,0,3.6-0.1,6.2-0.2s9.5,0.2,12.7,0.2s8.7,0.7,12.3,1.6l5.2,1.3c0.6,0.2,6.5,3.6,7.3,4.4l2.9,2.9c2.4,2.4,5.8,6.2,7.3,8.7
					C407.2,87.9,409.7,92.8,410.5,95.3L410.5,95.3z"/>
				<path class="st8" d="M327.4,46.3c0,0-5.5-4.9-15.5-11.4c-4-2.6-10.2-6.2-14.5-8.7c-5-2.9-14.3-8.1-23.2-11.6
					c-11.2-4.4-25.4-8.4-33.4-10.2C223.1,0.4,204.2,0,191.3,0c-6.8,0-16,1.5-26.2,2.9c-15.1,2.2-19.5,3.7-29.8,7
					c-12.7,4.2-32.6,13.9-42.1,20.3C81.6,38,55.1,57.9,45.5,72.4c-9.7,14.5-14,30.7-15.6,46.9c-1.3,12.8,0.4,23.9,4.8,37.1
					c4.8,14.5,17.7,27.4,27.4,33.8c13.8,9.2,29,9.7,40.3,9.7s30.4-3.6,46.8-11.3c11.7-5.5,28-16.3,39.3-24.4s30.5-21.8,46.5-33.4
					c12.3-8.9,36.3-27.6,50.9-36.3c10-6,29.1-16,32-17.4c7-3.5,16-7.3,27.6-8.7c10-1.2,13.3-1.2,17.4-1.4c4.4-0.3,12.8,0.1,15,0.3
					s6.8,1.2,6.8,1.2c-2.5-0.8-9.3-2.3-11.6-2.9c-4.5-1.1-14.5-2.9-14.5-2.9c-8.7-1.5-2.9,0-10.2-1.5c-3.2-0.6-18.9-13.1-18.9-13.1"
					/>
				<path class="st9" d="M122,108.9c-34.7,0-44.1-16.1-48.3-29.1c-3.8-11.4-1.8-22.8,0.6-28.8c1.9-4.9,7.8-12.5,10.1-14.5
					c5.9-4.9,4.9-3.8,10.1-7.2c4.3-2.9,10.4-5.9,27.5-14.5c10.2-5.1,24.1-7.4,37.7-10.8c7.6-1.9,20.9-2.8,25.6-2.8h25.6
					c8.7,0,23.6,3.1,34.1,5.7c11.6,2.9,12,1.8,27.6,8c16,6.4,21,8.2,30.4,14.5l15.9,10.1l4.5,5.6c0.6,0.6-5.2-1.6-14.4-3.7
					c-11.9-2.7-23.2-1.8-31.2-0.2c-20.6,3.9-77.7,42-103.6,53.3C157.6,101.6,137.4,108.9,122,108.9L122,108.9z M189.5,28.8
					L189.5,28.8z"/>
				<path class="st10" d="M311.9,34.9c-9.6-6.4-18.9-13.1-33.4-18.9c-10.3-4.1-23.2-8.7-37.8-11.6c-8.1-1.6-25.2-4.4-32-4.4h-20.3
					c-1.4,0-26.2,2.9-32,4.4c-7.2,1.8-23.2,5.8-32,10.2c-12.9,6.4-39.9,24-25.3,53.2c16.1,32.2,63.1,10.8,75.8,4.8
					c8.3-3.9,48.3-22.4,55.6-26c13.4-6.5,29.1-13.1,48-13.1c13,0,27,3.7,38.2,8.5l11.3,4.8c1.5,1.5-4.7-3.1-7.9-6.3"/>
			</g>
			<g>
				<path class="st10" d="M716.6,77.2c43.5,0,82,23.5,102.1,53.4l-44.3,32.8c-10.9-15.8-29.3-32.2-57.8-32.2
					c-39.8,0-66.4,28.7-66.4,68.3s26.5,68.7,66.4,68.7c26.8,0,49.8-11.2,57.1-33.6H711v-48.3h123.9c0.7,6.8,1,15.1,1,24.9
					c0,64.3-52.6,111.1-119.3,111.1c-70.6,0-125.4-52.9-125.4-122.6S646.1,77.2,716.6,77.2L716.6,77.2z"/>
				<path class="st10" d="M904,236c13.5,21,35.7,34.2,58.9,34.2c18.8,0,34.2-7.5,34.2-18.4c0-15.2-20.2-19.8-48.7-28.4
					c-42.6-12.8-81.3-26.4-81.3-75.2c0-43.8,42.8-70.9,86.4-70.9S1026,97.4,1047,128l-42.6,31.4c-10.5-15.1-27.9-31.5-51-31.5
					c-16.6,0-28.2,7.9-28.2,19.3c0,15.8,18.2,18.6,44,27.2c53.8,17.9,86,32.1,86,75.5c0,49.6-48.3,72.4-93.7,72.4
					c-42.8,0-82.9-18.9-100.7-54.7L904,236L904,236z"/>
				<path class="st2" d="M1096.9,80.7h168.7v48.5h-111.1v44.1h97.2v48.4h-97.2v48.5h112.8v48.4h-170.5V80.7z"/>
				<path class="st2" d="M1363.7,80.7v149.1c0,25.9,16.8,42.4,43.1,42.4s43.3-16.3,43.3-42.4V80.7h57.6V233
					c0,55.4-38.2,89.2-100.9,89.2s-100.7-32.8-100.7-89.2V80.7H1363.7z"/>
			</g>
		</g>
	</g>
</g>
<g id="Layer_3">
	<g>
		<g id="Layer_1-2_00000134966340232492533110000009924649070955589047_">
			<g>
				<g>
					<circle class="st11" cx="197.6" cy="199.1" r="199.8"/>
					<path class="st12" d="M368.4,284.6c0,0-2.6,0.7-2.8,0c-2.8-8.5-8.5-11.4-17.1-11.4c-6.4,0-14.2,0-25.6,8.5
						c-8.5,6.4-21.7,23.9-28.5,31.3c-8.2,8.9-24.1,29.8-31.3,37c-8.5,8.5-49.7,48.8-68.4,48.8c-6.1,0-18.1-0.8-28.5-2.4
						c-9.1-1.4-17.1-3.6-17.1-3.6c-1.1-0.6-25.6-5.8-31.3-11.5c-7.1-7.1,45.1,7.3,39.9,5.7c-1.2-0.4,28.5-5.7,28.5-5.7
						c0.2,0,7.9-1.2,19.9-8.5c14.2-8.6,20.5-12.4,34.6-24.1l4.7-3.9c10.6-8.9,16.5-15.3,22.6-22.1c3.2-3.5,6.6-7.2,10.6-11.2
						c5.7-5.7,9.9-10.6,13.9-15.4c3.8-4.5,7.3-8.7,11.7-13.1c7.9-7.9,13.8-11.7,20.1-15.7c1.5-1,3.1-2,4.8-3.1
						c18.3-12.2,32.5,2.1,37.9,7.5l1.3,7.2"/>
					<path class="st13" d="M9.3,136.7c1.2-7.1,5.4-18.2,3.1-13.1c0,0-4.4,13.1-7.3,21.9c-3.2,9.7-6.6,32.9-7.3,39.3
						c-1.3,13.1,0.8,32.3,1.5,37.9c1.5,11.7,2.4,17.8,5.6,29.1c4.6,16.2,13.1,36,22.1,51c9.7,16.2,24.8,33.5,35,43.7
						s20.1,17,27.7,21.8c10.3,6.6,20.7,10.4,28.2,13.2c12.9,4.8,30.7,8.1,48.5,6.5s28.6-7,43.3-15.1s34.3-23.7,47.2-36.6
						c12.9-12.9,25.3-23.3,35.6-35.6c8.1-9.7,19.4-19.4,24.2-22.6c9.7-6.5,9.9-6.9,21-9.7c6.5-1.6,14.5,0,19.4,3.2
						c6.7,4.5,8.1,9.7,8.1,16.2s0,8.5-3.2,19.4l-3.2,10.9c-1,0.5,1.5-3.3,5.6-8.5l5.6-9.5c2.7-4.5,6.2-10.7,8.2-14.8
						c3-6.2,8.4-19.1,11.7-32c3.2-12.6,2-24.5-0.9-36.2c-3.2-12.9-8.8-21.6-15.3-26.5c-2.8-2.1-11.1-7.4-16.8-8.5
						c-7.3-1.4-19.5-1.1-24-0.2c-10,2-17.5,4.9-32,14.6s-21.2,18.7-32.6,28.4c-11.3,9.7-24.2,22.6-40.4,37.2
						c-16.2,14.5-40.4,29.1-51.7,33.9c-14,6-29.1,11.3-46.9,12.9c-11.4,1-23.3,1.6-34.6,0c-16.3-2.3-29.3-7.8-38.6-13.3
						c-8.1-4.9-20.4-16-29.1-27.7c-5-6.7-14.6-26.2-17.5-37.9c-1.6-6.6-6.5-27.3-6.6-40.6c-0.1-12.5,2.7-37.1,5.1-46.9L9.3,136.7
						L9.3,136.7z"/>
					<path class="st14" d="M103.4,341.5c-22.8-2.8-35.4-2-51.3-11.4c-17.5-10.4-30.3-36.2-34.2-42.7C9.3,273.2-2,230.4-2,207.6
						c0-6.3-0.7-24.4,2.9-42.7c3.2-16.5,11.5-33.2,11.4-39.9L2.2,164.8c0.4,40.1,4.4,51.5,5.5,57.8c3.1,16.8,18.9,43.5,24.8,52.3
						c1.9,2.9,22.1,20.2,33.5,24.8c19.7,7.9,56.7,13,76.7,7.9c26.9-6.7,55.6-21.6,76.8-39.7c26.6-22.8,44.9-39.3,56.2-50.5
						c14.3-14.3,32.4-29.6,43.2-36.5c14.8-9.4,31.5-10.6,47-3.4c16.5,7.7,26.7,23.2,30.3,34l-7.8,7.4c-1.5-4.6-2.2-15.4-22.8-25.6
						c-17.1-8.5-31.3-2.9-42.7,2.9c-16.3,8.2-28.2,19.6-42.7,34.2c-11.9,11.9-22.8,28.5-42.7,48.4c-17.1,17.1-52.6,43.9-79.8,54.1
						C134.8,341.5,113.2,341.5,103.4,341.5L103.4,341.5z"/>
					<path class="st15" d="M400.5,78.6c7.3,8.7,8.7,14.6,10.2,23.3s-2.9,23.3-5.8,29.1s-7.3,13.1-8.7,16c-2.3,4.7-2.9,7.3-2.9,10.2
						c0,0,1.5,7.3,2.7,18c0.9,7.9,1.6,23.4,1.2,34.2s-2.9,26.2-4.4,33.5c-2,9.9-7.7,26.8-2.4,4.6c1-4.2,1.2-10.2,0-18.9
						c-1.5-10.2-3.5-17.2-7.3-24.8c-2.9-5.8-4.2-9-11.7-14.6c-5.8-4.4-10.2-5.8-17.5-7.3c-4.5-0.9-13.2-0.8-18.9,0
						c-2.6,0.4-8.9,2.5-10.2,2.9c-8.7,2.9-19.4,10-26.2,14.6c-4.4,2.9-24.8,20.4-24.8,20.4c-12.9,11.3-25,24.2-37.9,35.5
						s-29.1,24.2-43.6,32.3c-14.5,8.1-30.6,14.9-45.2,18.1s-21.1,4.5-37.2,4.5c-8.3,0-17.5-1.1-26.1-3.3c-5.8-1.5-10.2-2.9-17.5-5.8
						c-4.3-1.7-11.1-6.4-18.9-11.7c-9.7-6.5-18.9-17.5-26.2-30.6c-8.9-16-15.1-37.1-17.5-52.5c-2.9-18.9-1.5-34.6,1.5-52.5
						c1.5-8.7,3.1-18.6,8.7-33.5c4.4-11.7,7.3-16,11.7-23.3c3.6-6,10-16.2,13.1-20.4c4.4-5.8,8.7-11.7,14.6-17.5
						c10.5-10.4,29.1-24.8,33.5-27.7c5.4-3.6,16-10.2,32-17.5c10.2-4.6,20.1-7.3,31.3-10c6.4-1.5,20.4-3.8,24.8-4.4
						C186.6-2,188.3-2,202.6-2c1.5,0,13.4,0.7,18.9,1.5c7.3,1,19.7,2.7,28.4,5.6c4.4,1.5,17.6,5,32,11.7c2.6,1.2,10.8,5.3,16.8,9
						l11.1,6.8c4,3.3,11.1,9.1,15.6,12.7c4.5,3.7,11.3,8.7,15,11.3l2,1.2c1.6,1,2.3,2,3.8,2.7c0.5,0.2,0,0.1,0.5,0.2
						c0.6,0.2,1.7,1.2,2.4,1.2c1.2,0.1,1.7-0.1,2.9,0c1.8,0.1,11.9,1.5,13.7,1.7c1.6,0.2,6.6,1,8.2,1.2c1.5,0.2,2-0.1,3.5,0.2
						s4.4,1,5.8,1.5c1.5,0.5,2.9,0.8,4.4,1.5c0,0,0.9,0.1,2.9,1.5C394.7,72.8,398.2,75.8,400.5,78.6L400.5,78.6z"/>
					<path class="st16" d="M409.1,94.1c1,3,2,9.5,1.9,12.7c-0.1,4.7,0.2,1.2,0.2,1.2s-0.6-3-2.8-8.5c-2.9-7.3-8.5-17.1-19.9-22.8
						c-13.7-6.9-34.2-5.7-48.4,0c-10.3,4.1-33.7,16.3-42.7,22.8c-18.1,12.9-17.1,14.2-37,31.3c-0.4,0.3-12.1,9-31.3,25.6
						c-15.2,13.1-29.2,26.6-39.9,34.2c-7.9,5.7-31,24.6-46.8,32.1c-22.1,10.4-35,11.7-35,11.7c-8,0.8-20.9,0.2-28.8-1.3
						c0,0-23.6-4.5-35.2-11.8c-15.1-9.4-23.6-24.1-27.7-33.5c-4.4-10.2-7.3-21.9-7.3-30.6v-17.7c0.8-3.9,1.5-7.7,1.5-8.5l4.4-10.2
						c0,0,4.9-12.3,8.3-17.8C26,97.5,42,72.8,42,72.8l2.9-2.9c-1.6,2.4-6,10.2-9.7,17.2c0,0-6.3,11.9-6.3,33.8
						c0,36.5,11.2,51.4,26.2,62.6c17.5,13.1,39.3,17.5,72.9,10.2c28.3-6.1,86.1-50.8,86.1-50.8c6.3-4.9,16.8-12.8,23.3-17.5
						l31.9-23.5c6.5-4.8,17.5-11.7,24.7-15.3l16.4-8.5c7.1-3.7,15.2-7.7,18-8.9s8.8-1.4,11.7-2.2c2.8-0.8,5.1-1.5,5.1-1.5h5.8
						c0.8,0,3.6-0.1,6.2-0.2s9.6,0.2,12.8,0.2s8.7,0.7,12.3,1.6l5.2,1.3c0.6,0.1,6.5,3.6,7.3,4.4l2.9,2.9c2.4,2.4,5.8,6.3,7.3,8.7
						C405.8,86.5,408.2,91.5,409.1,94.1L409.1,94.1z"/>
					<path class="st17" d="M325.7,44.9c0,0-5.5-4.9-15.5-11.4c-4-2.6-10.2-6.2-14.6-8.7c-5-2.9-14.4-8.1-23.3-11.7
						c-11.2-4.4-25.4-8.4-33.5-10.2c-17.6-3.9-36.6-4.4-49.5-4.4c-6.8,0-16,1.5-26.2,2.9c-15.1,2.2-19.6,3.7-29.9,7.1
						c-12.7,4.2-32.6,14-42.2,20.4c-11.6,7.8-38.2,27.7-47.9,42.2c-9.7,14.5-14.1,30.8-15.7,47c-1.3,12.9,0.4,23.9,4.9,37.2
						c4.9,14.5,17.8,27.5,27.5,33.9c13.9,9.2,29.1,9.7,40.4,9.7s30.5-3.6,46.9-11.3c11.7-5.5,28.1-16.4,39.4-24.5
						s30.6-21.9,46.6-33.5c12.3-9,36.4-27.7,51-36.4c10.1-6,29.1-16,32-17.5c7-3.5,16-7.3,27.7-8.7c10-1.2,13.3-1.2,17.5-1.5
						c4.4-0.3,12.9,0.1,15.1,0.3c2.2,0.2,6.8,1.1,6.8,1.1c-2.5-0.8-9.3-2.3-11.7-2.9c-4.5-1.1-14.6-2.9-14.6-2.9
						c-8.7-1.5-2.9,0-10.2-1.5c-3.2-0.6-18.9-13.1-18.9-13.1"/>
					<path class="st18" d="M119.8,107.7c-34.8,0-44.2-16.2-48.5-29.1c-3.8-11.5-1.8-22.8,0.6-28.9c1.9-4.9,7.8-12.6,10.2-14.5
						c6-5,4.9-3.8,10.2-7.3c4.4-2.9,10.5-5.9,27.6-14.5c10.2-5.1,24.2-7.4,37.8-10.9c7.6-1.9,21-2.9,25.6-2.9h25.6
						c8.7,0,23.7,3.1,34.2,5.7c11.6,2.9,12.1,1.8,27.6,8c16,6.4,21.1,8.2,30.5,14.5l16,10.2l4.5,5.6c0.6,0.6-5.3-1.6-14.4-3.7
						c-11.9-2.8-23.3-1.8-31.3-0.2c-20.6,3.9-77.9,42.1-103.9,53.5C155.4,100.4,135.2,107.7,119.8,107.7L119.8,107.7z M187.5,27.4
						L187.5,27.4z"/>
					<path class="st19" d="M310.2,33.4c-9.6-6.4-18.9-13.1-33.5-18.9c-10.3-4.1-23.3-8.7-37.9-11.7c-8.1-1.6-25.2-4.4-32-4.4h-20.4
						c-1.5,0-26.2,2.9-32,4.4c-7.2,1.8-23.3,5.8-32,10.2c-12.9,6.5-40,24-25.4,53.3c16.2,32.3,63.3,10.8,76,4.9
						c8.3-3.9,48.4-22.5,55.8-26.1c13.4-6.6,29.1-13.1,48.1-13.1c13,0,27,3.7,38.3,8.5l11.3,4.9c1.5,1.5-4.8-3.1-8-6.3"/>
				</g>
			</g>
		</g>
	</g>
</g>
</svg>
